<mxfile host="app.diagrams.net" modified="2021-12-08T19:33:58.132Z" agent="5.0 (Windows NT 10.0; Win64; x64) AppleWebKit/537.36 (KHTML, like Gecko) Chrome/96.0.4664.45 Safari/537.36" etag="HCNgAo8ZD1h3QFct_y-H" version="15.9.4" type="github" pages="2">
  <diagram id="xZUEEhlqR2YgX-Inar-z" name="Page-1">
    <mxGraphModel dx="1038" dy="556" grid="1" gridSize="10" guides="1" tooltips="1" connect="1" arrows="1" fold="1" page="1" pageScale="1" pageWidth="850" pageHeight="1100" math="0" shadow="0">
      <root>
        <mxCell id="0" />
        <mxCell id="1" parent="0" />
        <mxCell id="6IcUsDizwOfbhfRclnIK-10" value="" style="rounded=0;whiteSpace=wrap;html=1;fontSize=11;fontColor=#3333FF;dashed=1;" vertex="1" parent="1">
          <mxGeometry x="60" y="260" width="140" height="100" as="geometry" />
        </mxCell>
        <mxCell id="-1aNArAHK49JRfU5nT5b-3" value="" style="shape=image;html=1;verticalAlign=top;verticalLabelPosition=bottom;labelBackgroundColor=#ffffff;imageAspect=0;aspect=fixed;image=https://cdn4.iconfinder.com/data/icons/music-ui-solid-24px/24/radio_signal_antenna_broadcast-2-128.png" parent="1" vertex="1">
          <mxGeometry x="117" y="260" width="40" height="40" as="geometry" />
        </mxCell>
        <mxCell id="-1aNArAHK49JRfU5nT5b-7" value="" style="endArrow=none;dashed=1;html=1;rounded=0;" parent="1" edge="1">
          <mxGeometry width="50" height="50" relative="1" as="geometry">
            <mxPoint x="136.5" y="320" as="sourcePoint" />
            <mxPoint x="136.5" y="290" as="targetPoint" />
          </mxGeometry>
        </mxCell>
        <mxCell id="-1aNArAHK49JRfU5nT5b-8" value="Customer" style="shape=umlActor;verticalLabelPosition=bottom;verticalAlign=top;html=1;outlineConnect=0;" parent="1" vertex="1">
          <mxGeometry x="117" y="400" width="30" height="60" as="geometry" />
        </mxCell>
        <mxCell id="-1aNArAHK49JRfU5nT5b-9" value="" style="shape=image;html=1;verticalAlign=top;verticalLabelPosition=bottom;labelBackgroundColor=#ffffff;imageAspect=0;aspect=fixed;image=https://cdn2.iconfinder.com/data/icons/mobile-smart-phone/64/mobile_cell_tower_connection_3g_4g_5g-128.png" parent="1" vertex="1">
          <mxGeometry x="190" y="170" width="70" height="70" as="geometry" />
        </mxCell>
        <mxCell id="-1aNArAHK49JRfU5nT5b-10" value="" style="shape=image;html=1;verticalAlign=top;verticalLabelPosition=bottom;labelBackgroundColor=#ffffff;imageAspect=0;aspect=fixed;image=https://cdn3.iconfinder.com/data/icons/tiny-weather-1/512/flash-128.png;rotation=-150;" parent="1" vertex="1">
          <mxGeometry x="150" y="222" width="68" height="68" as="geometry" />
        </mxCell>
        <mxCell id="-1aNArAHK49JRfU5nT5b-14" value="" style="rounded=0;whiteSpace=wrap;html=1;" parent="1" vertex="1">
          <mxGeometry x="320" y="80" width="340" height="200" as="geometry" />
        </mxCell>
        <mxCell id="-1aNArAHK49JRfU5nT5b-17" value="" style="shape=image;verticalLabelPosition=bottom;labelBackgroundColor=#ffffff;verticalAlign=top;aspect=fixed;imageAspect=0;image=https://www.gocariq.com/wp-content/uploads/2021/10/cropped-CarIQ-Logo-RGBR.png;" parent="1" vertex="1">
          <mxGeometry x="330" y="90" width="70" height="22.48" as="geometry" />
        </mxCell>
        <mxCell id="-1aNArAHK49JRfU5nT5b-19" value="" style="endArrow=classic;startArrow=classic;html=1;rounded=0;fontSize=10;fillColor=#fff2cc;strokeColor=#d6b656;strokeWidth=3;" parent="1" edge="1">
          <mxGeometry width="50" height="50" relative="1" as="geometry">
            <mxPoint x="260" y="200" as="sourcePoint" />
            <mxPoint x="310" y="200" as="targetPoint" />
          </mxGeometry>
        </mxCell>
        <mxCell id="-1aNArAHK49JRfU5nT5b-20" value="&lt;div&gt;Identity /&lt;/div&gt;&lt;div&gt;Authentication /&lt;/div&gt;&lt;div&gt;Service Validation&lt;/div&gt;" style="rounded=1;whiteSpace=wrap;html=1;fontSize=10;fillColor=#d5e8d4;strokeColor=#82b366;" parent="1" vertex="1">
          <mxGeometry x="430" y="130" width="88" height="60" as="geometry" />
        </mxCell>
        <mxCell id="-1aNArAHK49JRfU5nT5b-21" value="&lt;div&gt;Geofence Map (&lt;i&gt;Fuel/Charging, Toll, RSA, Fleet map&lt;/i&gt;)&lt;/div&gt;" style="rounded=1;whiteSpace=wrap;html=1;fontSize=10;fillColor=#d5e8d4;strokeColor=#82b366;" parent="1" vertex="1">
          <mxGeometry x="430" y="210" width="88" height="60" as="geometry" />
        </mxCell>
        <mxCell id="-1aNArAHK49JRfU5nT5b-22" value="&lt;div&gt;Payment Services&lt;/div&gt;" style="rounded=1;whiteSpace=wrap;html=1;fontSize=10;fillColor=#f5f5f5;strokeColor=#666666;fontColor=#333333;" parent="1" vertex="1">
          <mxGeometry x="530" y="130" width="120" height="60" as="geometry" />
        </mxCell>
        <mxCell id="-1aNArAHK49JRfU5nT5b-23" value="&lt;div&gt;Merchant Onboarding&lt;/div&gt;" style="rounded=1;whiteSpace=wrap;html=1;fontSize=10;fillColor=#f5f5f5;strokeColor=#666666;fontColor=#333333;" parent="1" vertex="1">
          <mxGeometry x="530" y="210" width="120" height="60" as="geometry" />
        </mxCell>
        <mxCell id="-1aNArAHK49JRfU5nT5b-24" value="&lt;div&gt;(&lt;i&gt;Bulk/Single&lt;/i&gt;) Vehicle Onboarding&lt;/div&gt;" style="rounded=1;whiteSpace=wrap;html=1;fontSize=10;fillColor=#d5e8d4;strokeColor=#82b366;" parent="1" vertex="1">
          <mxGeometry x="330" y="130" width="90" height="60" as="geometry" />
        </mxCell>
        <mxCell id="-1aNArAHK49JRfU5nT5b-28" value="1. User &lt;b&gt;registers in CarIQ&lt;/b&gt;&lt;br&gt;&lt;br&gt;2. User &lt;b&gt;completes KYC &lt;/b&gt;process in Car IQ&lt;br&gt;&lt;br&gt;3. User &lt;b&gt;adds one/more vehicles&lt;/b&gt; to the account&lt;br&gt;&lt;blockquote style=&quot;margin: 0 0 0 40px ; border: none ; padding: 0px&quot;&gt;a. &lt;font color=&quot;#3333ff&quot;&gt;Vehicle must be connected to a compatible telematics service platform to exchange data with Car IQ.&lt;/font&gt;&lt;/blockquote&gt;&lt;br&gt;4. A &lt;b&gt;pre-defined period&lt;/b&gt; of telemetry data collection from the B2B integration - by Car IQ&lt;br&gt;&lt;br&gt;5. &lt;b&gt;Vehicle Identity is created&lt;/b&gt; with static dataset (VIN, &amp;lt;addn. serial part numbers&amp;gt;) + dynamic (&amp;lt;telemetry data&amp;gt;) in Car IQ&lt;br&gt;&lt;br&gt;6. User &lt;b&gt;creates Rules&lt;/b&gt; in Car IQ, by categories - approved geofences to operate, limit per Tx, configurable service/merchant list" style="text;html=1;strokeColor=default;fillColor=none;align=left;verticalAlign=middle;whiteSpace=wrap;rounded=0;fontSize=10;dashed=1;" parent="1" vertex="1">
          <mxGeometry x="239.95" y="320" width="220.05" height="250" as="geometry" />
        </mxCell>
        <mxCell id="-1aNArAHK49JRfU5nT5b-29" value="" style="edgeStyle=segmentEdgeStyle;endArrow=classic;html=1;rounded=0;fontSize=10;strokeWidth=2;entryX=0.5;entryY=1;entryDx=0;entryDy=0;exitX=0.996;exitY=0.376;exitDx=0;exitDy=0;exitPerimeter=0;dashed=1;" parent="1" source="-1aNArAHK49JRfU5nT5b-28" target="-1aNArAHK49JRfU5nT5b-14" edge="1">
          <mxGeometry width="50" height="50" relative="1" as="geometry">
            <mxPoint x="460" y="400" as="sourcePoint" />
            <mxPoint x="510" y="350" as="targetPoint" />
          </mxGeometry>
        </mxCell>
        <mxCell id="-1aNArAHK49JRfU5nT5b-31" value="" style="endArrow=classic;html=1;rounded=0;fontSize=10;fontColor=#FFB366;strokeWidth=2;entryX=0;entryY=0.5;entryDx=0;entryDy=0;dashed=1;" parent="1" target="-1aNArAHK49JRfU5nT5b-28" edge="1">
          <mxGeometry width="50" height="50" relative="1" as="geometry">
            <mxPoint x="160" y="445" as="sourcePoint" />
            <mxPoint x="210" y="410" as="targetPoint" />
          </mxGeometry>
        </mxCell>
        <mxCell id="-1aNArAHK49JRfU5nT5b-33" value="&lt;div&gt;Vehicle State Model&lt;/div&gt;" style="rounded=1;whiteSpace=wrap;html=1;fontSize=10;fillColor=#d5e8d4;strokeColor=#82b366;" parent="1" vertex="1">
          <mxGeometry x="330" y="210" width="90" height="60" as="geometry" />
        </mxCell>
        <mxCell id="-1aNArAHK49JRfU5nT5b-34" value="" style="edgeStyle=segmentEdgeStyle;endArrow=classic;html=1;rounded=0;dashed=1;fontSize=12;fontColor=#6666FF;strokeWidth=2;exitX=1;exitY=0.5;exitDx=0;exitDy=0;" parent="1" source="-1aNArAHK49JRfU5nT5b-22" edge="1">
          <mxGeometry width="50" height="50" relative="1" as="geometry">
            <mxPoint x="690" y="180" as="sourcePoint" />
            <mxPoint x="760" y="160" as="targetPoint" />
          </mxGeometry>
        </mxCell>
        <mxCell id="-1aNArAHK49JRfU5nT5b-35" value="" style="edgeStyle=segmentEdgeStyle;endArrow=classic;html=1;rounded=0;dashed=1;fontSize=12;fontColor=#6666FF;strokeWidth=2;exitX=1;exitY=0.5;exitDx=0;exitDy=0;" parent="1" edge="1">
          <mxGeometry width="50" height="50" relative="1" as="geometry">
            <mxPoint x="650" y="240" as="sourcePoint" />
            <mxPoint x="760" y="240" as="targetPoint" />
          </mxGeometry>
        </mxCell>
        <mxCell id="-1aNArAHK49JRfU5nT5b-36" value="B2B eCommerce Platform" style="rounded=0;whiteSpace=wrap;html=1;dashed=1;fontSize=12;strokeColor=#666666;align=left;fillColor=#f5f5f5;fontColor=#333333;" parent="1" vertex="1">
          <mxGeometry x="760" y="140" width="70" height="40" as="geometry" />
        </mxCell>
        <mxCell id="-1aNArAHK49JRfU5nT5b-38" value="B2B Affiliation Platform" style="rounded=0;whiteSpace=wrap;html=1;dashed=1;fontSize=12;strokeColor=#666666;align=left;fillColor=#f5f5f5;fontColor=#333333;" parent="1" vertex="1">
          <mxGeometry x="760" y="220" width="70" height="40" as="geometry" />
        </mxCell>
        <mxCell id="6IcUsDizwOfbhfRclnIK-2" value="" style="rounded=1;whiteSpace=wrap;html=1;fillColor=#d5e8d4;strokeColor=#82b366;" vertex="1" parent="1">
          <mxGeometry x="640" y="329" width="50" height="20" as="geometry" />
        </mxCell>
        <mxCell id="6IcUsDizwOfbhfRclnIK-3" value="" style="rounded=1;whiteSpace=wrap;html=1;fillColor=#f5f5f5;strokeColor=#666666;fontColor=#333333;" vertex="1" parent="1">
          <mxGeometry x="640" y="360" width="50" height="20" as="geometry" />
        </mxCell>
        <mxCell id="6IcUsDizwOfbhfRclnIK-4" value="&lt;p style=&quot;margin-top: 0pt ; margin-bottom: 0pt ; margin-left: 0in ; text-align: left ; direction: ltr ; unicode-bidi: embed ; word-break: normal ; font-size: 11px&quot;&gt;&lt;span style=&quot;font-size: 11px ; font-family: &amp;#34;calibri&amp;#34;&quot;&gt;Backend Services &lt;b&gt;in-scope&lt;/b&gt; for edge&amp;nbsp;representation&lt;/span&gt;&lt;/p&gt;" style="text;html=1;strokeColor=none;fillColor=none;align=center;verticalAlign=middle;whiteSpace=wrap;rounded=0;fontSize=11;" vertex="1" parent="1">
          <mxGeometry x="700" y="324" width="140" height="30" as="geometry" />
        </mxCell>
        <mxCell id="6IcUsDizwOfbhfRclnIK-5" value="&lt;p style=&quot;margin-top: 0pt ; margin-bottom: 0pt ; margin-left: 0in ; text-align: left ; direction: ltr ; unicode-bidi: embed ; word-break: normal ; font-size: 11px&quot;&gt;&lt;span style=&quot;font-size: 11px ; font-family: &amp;#34;calibri&amp;#34;&quot;&gt;Backend Services &lt;b&gt;out of scope&lt;/b&gt; for edge&amp;nbsp;representation&lt;/span&gt;&lt;/p&gt;" style="text;html=1;strokeColor=none;fillColor=none;align=center;verticalAlign=middle;whiteSpace=wrap;rounded=0;fontSize=11;" vertex="1" parent="1">
          <mxGeometry x="700" y="355" width="140" height="30" as="geometry" />
        </mxCell>
        <mxCell id="6IcUsDizwOfbhfRclnIK-8" value="&lt;font color=&quot;#330000&quot;&gt;Vehicle Edge&lt;/font&gt;" style="shape=mxgraph.signs.transportation.car_2;html=1;pointerEvents=1;fillColor=#000000;strokeColor=none;verticalLabelPosition=bottom;verticalAlign=top;align=center;fontSize=11;fontColor=#3333FF;" vertex="1" parent="1">
          <mxGeometry x="82" y="322" width="100" height="33" as="geometry" />
        </mxCell>
        <mxCell id="6IcUsDizwOfbhfRclnIK-12" value="Onboard" style="text;html=1;strokeColor=none;fillColor=none;align=center;verticalAlign=middle;whiteSpace=wrap;rounded=0;dashed=1;fontSize=14;fontColor=#3333FF;" vertex="1" parent="1">
          <mxGeometry x="60" y="260" width="60" height="30" as="geometry" />
        </mxCell>
        <mxCell id="6IcUsDizwOfbhfRclnIK-13" value="Offboard" style="text;html=1;strokeColor=none;fillColor=none;align=center;verticalAlign=middle;whiteSpace=wrap;rounded=0;dashed=1;fontSize=14;fontColor=#FF8000;" vertex="1" parent="1">
          <mxGeometry x="600" y="80" width="60" height="30" as="geometry" />
        </mxCell>
      </root>
    </mxGraphModel>
  </diagram>
  <diagram id="0lFeeg3h9F9cTpA0pDjn" name="Page-2">
    <mxGraphModel dx="1038" dy="556" grid="1" gridSize="10" guides="1" tooltips="1" connect="1" arrows="1" fold="1" page="1" pageScale="1" pageWidth="827" pageHeight="1169" math="0" shadow="0">
      <root>
        <mxCell id="OppfQNcWZWz8VkuyHKna-0" />
        <mxCell id="OppfQNcWZWz8VkuyHKna-1" parent="OppfQNcWZWz8VkuyHKna-0" />
        <mxCell id="wGuhdBM_QDu5Fw34me1V-0" value="&lt;font style=&quot;font-size: 12px&quot;&gt;USE CASES&lt;/font&gt;&lt;br&gt;&lt;br&gt;1.(&lt;i&gt;Data plane&lt;/i&gt;)&amp;nbsp;&lt;b&gt;&lt;font color=&quot;#6666ff&quot;&gt;Implicit Authentication&lt;/font&gt;&lt;/b&gt; - authentication using Car IQ algorithm, that uses vehicle static marker + dynamic content ( from Bus signals &amp;amp; Diagnostic data)&lt;br&gt;&lt;br&gt;2. (&lt;i&gt;Data plane&lt;/i&gt;)&amp;nbsp;&lt;font color=&quot;#6666ff&quot;&gt;&lt;b&gt;Continuous Authentication&lt;/b&gt;&lt;/font&gt; - using vehicle state model and telemetry data, on a predefined rate of Tx. Prevents spoofing, generates &quot;Authentication Score&quot;&lt;br&gt;&lt;br&gt;3. (&lt;i&gt;Control &amp;amp; Config&lt;/i&gt;) &lt;b&gt;&lt;font color=&quot;#6666ff&quot;&gt;Geofence Updates&lt;/font&gt;&lt;/b&gt; - ever updating the digital map of geofence onboard&lt;br&gt;&lt;br&gt;4. (&lt;i&gt;Control &amp;amp; Config&lt;/i&gt;) &lt;b&gt;&lt;font color=&quot;#6666ff&quot;&gt;Rules Updates&lt;/font&gt; -&amp;nbsp;&lt;/b&gt;ever updating the user-customised + Car IQ default ruleset onboard&lt;br&gt;&lt;br&gt;5. (&lt;i&gt;Insights&lt;/i&gt;) &lt;b&gt;&lt;font color=&quot;#6666ff&quot;&gt;Fuel/Charge efficiency&lt;/font&gt;&lt;/b&gt;&amp;nbsp; - over a time series of Refuelling/Recharging data&lt;br&gt;&lt;br&gt;6. (Insights) &lt;b&gt;&lt;font color=&quot;#6666ff&quot;&gt;Usage based Insurance&lt;/font&gt;&lt;/b&gt; -&amp;nbsp;" style="text;html=1;strokeColor=#6c8ebf;fillColor=#dae8fc;align=left;verticalAlign=middle;whiteSpace=wrap;rounded=0;fontSize=10;dashed=1;" vertex="1" parent="OppfQNcWZWz8VkuyHKna-1">
          <mxGeometry x="110" width="230" height="380" as="geometry" />
        </mxCell>
      </root>
    </mxGraphModel>
  </diagram>
</mxfile>
